HIERARCHY
ROOT hip
{
  OFFSET 0.0 0.0 0.0
  CHANNELS 6 Xposition Yposition Zposition Zrotation Yrotation Xrotation
  JOINT torso
  {
    OFFSET 0.0 0.0 0.0
    CHANNELS 3 Zrotation Xrotation Yrotation
    JOINT neck
    {
      OFFSET -31.42098999999993 328.8025209999999 74.3554680000002
      CHANNELS 3 Zrotation Xrotation Yrotation
      JOINT head
      {
        OFFSET 3.3519900000001144 303.81732099999994 206.53942900000015
        CHANNELS 3 Zrotation Xrotation Yrotation
        End Site
        {
          OFFSET 0.0 0.0 0.0
        }
      }
    }
    JOINT left_collar
    {
      OFFSET -31.42098999999993 328.8025209999999 74.3554680000002
      CHANNELS 3 Zrotation Xrotation Yrotation
      JOINT left_upper_arm
      {
        OFFSET -124.490479 -8.162841999999841 8.226441000000023
        CHANNELS 3 Zrotation Xrotation Yrotation
        JOINT left_forearm
        {
          OFFSET -253.595764 -1.5758060000000569 105.0729980000001
          CHANNELS 3 Zrotation Xrotation Yrotation
          JOINT left_hand
          {
            OFFSET -269.48803699999996 0.1478270000000066 -55.346191999999974
            CHANNELS 3 Zrotation Xrotation Yrotation
            End Site
            {
              OFFSET 0.0 0.0 0.0
            }
          }
        }
      }
    }
    JOINT right_collar
    {
      OFFSET -31.42098999999993 328.8025209999999 74.3554680000002
      CHANNELS 3 Zrotation Xrotation Yrotation
      JOINT right_upper_arm
      {
        OFFSET 162.02484099999998 0.46441600000002836 2.2303470000001653
        CHANNELS 3 Zrotation Xrotation Yrotation
        JOINT right_forearm
        {
          OFFSET 240.01246700000004 -25.835875999999985 121.34179699999959
          CHANNELS 3 Zrotation Xrotation Yrotation
          JOINT right_hand
          {
            OFFSET 252.48539699999992 18.910399999999868 -67.53466800000001
            CHANNELS 3 Zrotation Xrotation Yrotation
            End Site
            {
              OFFSET 0.0 0.0 0.0
            }
          }
        }
      }
    }
  }
}
MOTION
Frames: 13
Frame Time: 0.01
-550.5517944256177 278.85364455718855 466.1248749982346 1.3884352747779078 -0.52070156342491 52.06631944045623 -0.1697028489041893 2.3644363511056317 0.26204200429815955 1.8152940259858898 -14.294566847954213 -1.2006710065701076 0.0 0.0 0.0 0.7002205554163019 0.23110445708224586 -2.572054876336183 47.42859877202386 7.176391291805361 28.438273959271847 43.07470244424137 -5.114898659599324 -10.308919095801777 0.0 0.0 0.0 -1.0330591769302004 0.034473838173484046 3.2906835201664775 -40.100952059744316 21.491060477943662 -0.44250035869070964 -0.4209262332601247 -0.9476704246144848 12.05995085217645 0.0 0.0 0.0
-550.5813051984401 278.84019064856955 466.1971153359159 1.3874790818575766 -0.5229737909691725 52.06467084266001 -0.1696485218688343 2.3653291294948167 0.2621156763959315 1.828925083648296 -14.269753960185522 -1.2108354066476532 0.0 0.0 0.0 0.7016470807910955 0.23087552290900074 -2.567115054701619 47.42715396738455 7.174900719315835 28.44100737126635 43.07128339063701 -5.1154739237003035 -10.306355438536748 0.0 0.0 0.0 -1.0303967940040404 0.034403442979135765 3.297653713835649 -40.13450148263426 21.476804434180377 -0.50239473679656 -0.40413579500098495 -0.9483822403748409 12.109131545233014 0.0 0.0 0.0
-550.6108397611579 278.8280305745962 466.26420464633816 1.386680320797459 -0.525098403030079 52.06351444896276 -0.16940708087751485 2.366317124329279 0.26215981858953397 1.8420002897884682 -14.244663235055759 -1.2205854046172826 0.0 0.0 0.0 0.7033477342542828 0.23069649165151906 -2.5625320747953495 47.42582274814074 7.173497315622036 28.443592277533718 43.066159735212494 -5.116059390259227 -10.303207484017927 0.0 0.0 0.0 -1.0282643332895318 0.03435298366817924 3.3042430185433442 -40.166986812730485 21.463271823533006 -0.5598643143596617 -0.386948716019203 -0.9488833690492021 12.155916893124644 0.0 0.0 0.0
-550.6402502017867 278.8174078979745 466.32590253620134 1.3861017210144109 -0.5269963605947354 52.06284302107447 -0.16901931338801102 2.367393912123481 0.2621822355844842 1.8543181606899855 -14.219608522741778 -1.229771088896683 0.0 0.0 0.0 0.7053019387336005 0.23056738590452489 -2.5583318378344586 47.424530795345966 7.172167505447255 28.44603008776045 43.05950318045383 -5.116646391302721 -10.299552689757867 0.0 0.0 0.0 -1.026690253402751 0.03432337230331948 3.310383388156097 -40.19812657396845 21.45064352549576 -0.6143054334963707 -0.3698024241123134 -0.9492038588682035 12.199758842338165 0.0 0.0 0.0
-550.669406002682 278.80854289089075 466.38202508903004 1.3858002913674587 -0.5285905947061598 52.062651079511795 -0.1685266268262048 2.368550982616514 0.262190660669769 1.8656947026836692 -14.194900236066308 -1.2382556673491922 0.0 0.0 0.0 0.7074859683168078 0.23048738699160204 -2.5545323052068896 47.42320342935875 7.170900413857638 28.448316136472055 43.05151383094176 -5.117227520116936 -10.295474647952426 0.0 0.0 0.0 -1.0256973630834407 0.03431525310518205 3.316002842150733 -40.227654538704265 21.439072130895013 -0.665181269114141 -0.35312711138141845 -0.949377749630489 12.24019899295811 0.0 0.0 0.0
-550.6981931725477 278.8016270081804 466.43244379539954 1.385826091289522 -0.5298067011038424 52.062935321333164 -0.16796961750307804 2.3697766158794 0.26219235346312975 1.8759679117210153 -14.170838656657894 -1.2459187941687278 0.0 0.0 0.0 0.7098737397138553 0.23045493613806603 -2.5511439359369126 47.42176810227005 7.169688427304265 28.450439397281727 43.042413248026605 -5.117796534163752 -10.291061114620787 0.0 0.0 0.0 -1.025302255815442 0.03432898292546299 3.3210271790120998 -40.255326016619165 21.428680258954603 -0.7120309213432681 -0.33732769741424395 -0.9494409085849124 12.276874728577074 0.0 0.0 0.0
-550.72651306807 278.79681831331413 466.4770831697868 1.3862212550236843 -0.5305734792696108 52.063694867296796 -0.16738670927964744 2.3710548532649227 0.26219372104108735 1.885001412255973 -14.147707636839145 -1.252659250219445 0.0 0.0 0.0 0.7124376441266289 0.23046785716083543 -2.5481703804262352 47.420156573901046 7.16852746217443 28.452382720103373 43.03243737465033 -5.118348186274433 -10.286402167463185 0.0 0.0 0.0 -1.0255146960910075 0.03436461274386112 3.325382243050837 -40.28092407833741 21.419559648439417 -0.7544770344576206 -0.3227667111520493 -0.9494288783751423 12.30952259809907 0.0 0.0 0.0
-550.754280975989 278.79423801123886 466.5159171610923 1.387019274416365 -0.5308233507868642 52.064931304528585 -0.16681289860927892 2.3723646486186856 0.262199978261323 1.8926871255611926 -14.125768874073277 -1.2583968977729343 0.0 0.0 0.0 0.7151493922654535 0.23052349280428225 -2.545609352526363 47.418306682405124 7.167416940629542 28.45412355780222 43.0218295820233 -5.118878012240457 -10.28158850057523 0.0 0.0 0.0 -1.0263369810459135 0.034421871015546134 3.3289966481778115 -40.30426548586625 21.41177095801539 -0.7922318462688224 -0.30974907179641764 -0.9493748676657722 12.337979118831846 0.0 0.0 0.0
-550.7814245252025 278.7939681927569 466.54896450967766 1.3882445361781477 -0.530492695186881 52.06664850543466 -0.166278638719861 2.373679275262617 0.26221486125665333 1.8989469136962125 -14.10525691292196 -1.2630738724934134 0.0 0.0 0.0 0.7179808384361335 0.23061884485009052 -2.5434535825715705 47.41616366273732 7.166359498475846 28.45563510997181 43.010834054986475 -5.119382107140698 -10.27670984359919 0.0 0.0 0.0 -1.0277633112517768 0.034500150023703754 3.3318048257741006 -40.32520609674163 21.405344208238706 -0.8251015737495492 -0.29850964352424375 -0.9493080011163656 12.362179212161845 0.0 0.0 0.0
-550.807881995607 278.79605084462065 466.576283242763 1.3899121045054565 -0.5295221397822848 52.06885222067609 -0.16580889324248776 2.3749660480507875 0.2622404060255095 1.9037332016964132 -14.086375004999024 -1.2666550173128526 0.0 0.0 0.0 0.7209047457438226 0.23075070748754464 -2.541691750100642 47.41368100828352 7.165360468612989 28.456887786298324 42.9996896909804 -5.1198569224840496 -10.27185348123109 0.0 0.0 0.0 -1.029779212957838 0.034598496656194376 3.3337502351990698 -40.34364552496904 21.40027980031205 -0.8529890526224903 -0.2892042612521855 -0.9492519230861076 12.38215250495256 0.0 0.0 0.0
-550.8336005868792 278.80048813109386 466.5979645316514 1.3920277403152927 -0.5278568348804398 52.07154946197783 -0.16542238940411144 2.376186400255708 0.2622768021259628 1.907028631028981 -14.069291930074872 -1.2691275999935479 0.0 0.0 0.0 0.723895455869138 0.2309157845426684 -2.5403093091190274 47.410820907235745 7.164427194031073 28.457850883008657 42.98862464195412 -5.120299110905953 -10.26710284875013 0.0 0.0 0.0 -1.0323610602106819 0.03471560917777346 3.3347885563191952 -40.35953087080574 21.396550053138075 -0.8758945648348735 -0.28190470543265633 -0.949223823053392 12.398017736114456 0.0 0.0 0.0
-550.8585347076759 278.80724390735264 466.6141261568868 1.3945881528578017 -0.5254467383624494 52.07474770814627 -0.16513110212837573 2.3772963333560733 0.2623223296380311 1.9088448373786189 -14.054139849588719 -1.2705003853573162 0.0 0.0 0.0 0.7269294338484747 0.23111078372770347 -2.539289146255686 47.40755431283282 7.163568227922822 28.458494368600807 42.977851583321936 -5.120705435864792 -10.262536188843663 0.0 0.0 0.0 -1.0354757484056147 0.03484984158091226 3.334890675580837 -40.37285936909695 21.394101206350673 -0.893914811068108 -0.2765978655025181 -0.9492339232860807 12.409975509904303 0.0 0.0 0.0
-550.8826443448286 278.8162463824683 466.62490583892867 1.3975814847965609 -0.5222469243848037 52.078453983524454 -0.16494000077884027 2.378247234810207 0.2623733854135162 1.9092204744160315 -14.041013226790001 -1.2708021537325802 0.0 0.0 0.0 0.729985669116879 0.23133248437121243 -2.538612045120471 47.40386072454068 7.162792478120657 28.458790682747722 42.96756375306756 -5.1210727530130775 -10.258225269485443 0.0 0.0 0.0 -1.0390805702620114 0.034999216941010526 3.3340452818196864 -40.38367984981027 21.392855839811592 -0.9072400190701145 -0.273189090131089 -0.9492854422317163 12.418299640811291 0.0 0.0 0.0
